<?xml version="1.0" standalone="no"?>
<!DOCTYPE svg PUBLIC "-//W3C//DTD SVG 20010904//EN"
 "http://www.w3.org/TR/2001/REC-SVG-20010904/DTD/svg10.dtd">
<svg version="1.0" xmlns="http://www.w3.org/2000/svg"
 width="16.000000pt" height="16.000000pt" viewBox="0 0 16.000000 16.000000"
 preserveAspectRatio="xMidYMid meet">
<metadata>
Created by potrace 1.11, written by Peter Selinger 2001-2013
</metadata>
<g transform="translate(0.000000,16.000000) scale(0.006154,-0.006154)"
fill="#000000" stroke="none">
<path d="M947 1380 c1 -561 1 -1020 -1 -1020 -16 0 -95 42 -163 87 -80 52
-215 177 -250 229 -15 23 -16 74 -16 499 l1 474 -39 -1 -39 0 -1 -417 -1 -416
-43 88 c-65 134 -98 284 -98 437 0 64 10 170 18 200 2 8 6 26 9 40 27 155 116
367 210 499 56 79 60 114 17 160 -42 44 -100 46 -142 3 -53 -56 -181 -362
-219 -527 -29 -127 -31 -142 -35 -290 -8 -291 70 -534 242 -756 l43 -55 0
-212 0 -212 35 0 c44 0 45 5 42 178 -1 74 0 138 3 143 3 4 30 -12 60 -37 100
-83 203 -144 333 -198 35 -14 38 -19 35 -48 l-3 -33 215 -2 c142 -2 254 3 330
12 156 20 168 22 283 56 l99 30 33 -39 c18 -21 48 -43 67 -48 18 -6 134 -11
257 -12 189 -1 222 1 217 13 -3 8 -44 80 -90 160 l-86 146 65 61 c60 56 151
162 169 198 5 8 -4 -1 -19 -20 -47 -59 -204 -210 -219 -210 -7 0 -42 48 -77
108 -154 264 -192 324 -229 364 -22 24 -39 45 -39 48 -1 3 18 19 40 35 23 17
64 62 93 100 124 166 376 515 376 522 0 5 -106 7 -235 7 -233 -1 -236 -2 -273
-26 -26 -18 -83 -94 -197 -263 -87 -130 -169 -244 -182 -252 -12 -8 -47 -16
-78 -18 l-55 -3 -1 47 c0 25 -1 304 -1 619 l0 572 -232 0 -231 0 2 -1020z
m621 -529 c19 -15 70 -106 217 -386 32 -60 62 -115 67 -121 6 -8 -15 -18 -69
-32 -123 -32 -172 -40 -285 -47 l-88 -6 -1 28 c0 42 -1 513 0 551 l1 33 69 -2
c45 -1 75 -7 89 -18z"/>
</g>
</svg>
